<svg width="100" height="100" viewBox="0 0 100 100" fill="none" xmlns="http://www.w3.org/2000/svg">
<path d="M49.9999 33.3335C45.5796 33.3335 41.3404 35.0894 38.2148 38.215C35.0892 41.3407 33.3333 45.5799 33.3333 50.0002C33.3333 54.4204 35.0892 58.6597 38.2148 61.7853C41.3404 64.9109 45.5796 66.6668 49.9999 66.6668C54.4202 66.6668 58.6594 64.9109 61.785 61.7853C64.9106 58.6597 66.6666 54.4204 66.6666 50.0002C66.6666 45.5799 64.9106 41.3407 61.785 38.215C58.6594 35.0894 54.4202 33.3335 49.9999 33.3335Z" fill="#E1306C"/>
<path fill-rule="evenodd" clip-rule="evenodd" d="M30 0C22.0435 0 14.4129 3.16071 8.7868 8.7868C3.16071 14.4129 0 22.0435 0 30L0 70C0 77.9565 3.16071 85.5871 8.7868 91.2132C14.4129 96.8393 22.0435 100 30 100H70C77.9565 100 85.5871 96.8393 91.2132 91.2132C96.8393 85.5871 100 77.9565 100 70V30C100 22.0435 96.8393 14.4129 91.2132 8.7868C85.5871 3.16071 77.9565 0 70 0L30 0ZM26.6667 50C26.6667 43.8116 29.125 37.8767 33.5008 33.5008C37.8767 29.125 43.8116 26.6667 50 26.6667C56.1884 26.6667 62.1233 29.125 66.4991 33.5008C70.875 37.8767 73.3333 43.8116 73.3333 50C73.3333 56.1884 70.875 62.1233 66.4991 66.4991C62.1233 70.875 56.1884 73.3333 50 73.3333C43.8116 73.3333 37.8767 70.875 33.5008 66.4991C29.125 62.1233 26.6667 56.1884 26.6667 50ZM73.3333 26.6667H80V20H73.3333V26.6667Z" fill="#E1306C"/>
</svg>
