<svg width="16" height="25" viewBox="0 0 16 25" fill="none" xmlns="http://www.w3.org/2000/svg">
<path d="M2.6791 8.91686L6.25834 5.32199V23.437C6.25834 23.8515 6.42302 24.2491 6.71613 24.5422C7.00925 24.8353 7.4068 25 7.82133 25C8.23586 25 8.63341 24.8353 8.92653 24.5422C9.21965 24.2491 9.38432 23.8515 9.38432 23.437V5.32199L12.9636 8.91686C13.1089 9.06336 13.2817 9.17964 13.4722 9.25899C13.6627 9.33834 13.8669 9.37919 14.0733 9.37919C14.2796 9.37919 14.4839 9.33834 14.6744 9.25899C14.8648 9.17964 15.0377 9.06336 15.183 8.91686C15.3295 8.77156 15.4458 8.5987 15.5251 8.40823C15.6045 8.21777 15.6453 8.01348 15.6453 7.80714C15.6453 7.60081 15.6045 7.39652 15.5251 7.20605C15.4458 7.01559 15.3295 6.84272 15.183 6.69742L8.93105 0.445473C8.78241 0.303177 8.60712 0.191635 8.41527 0.117245C8.03474 -0.0390817 7.60792 -0.0390817 7.2274 0.117245C7.03554 0.191635 6.86026 0.303177 6.71161 0.445473L0.459662 6.69742C0.313931 6.84315 0.198331 7.01616 0.119463 7.20657C0.0405937 7.39697 1.53552e-09 7.60105 0 7.80714C-1.53552e-09 8.01324 0.0405937 8.21731 0.119463 8.40772C0.198331 8.59812 0.313931 8.77113 0.459662 8.91686C0.605392 9.06259 0.7784 9.17819 0.968806 9.25706C1.15921 9.33593 1.36329 9.37652 1.56938 9.37652C1.77548 9.37652 1.97955 9.33593 2.16996 9.25706C2.36037 9.17819 2.53337 9.06259 2.6791 8.91686Z" fill="#00D998"/>
</svg>
